<?xml version="1.0" encoding="utf-8"?>
<!-- Generator: Adobe Illustrator 21.0.0, SVG Export Plug-In . SVG Version: 6.00 Build 0)  -->
<svg version="1.1" id="Layer_1" xmlns="http://www.w3.org/2000/svg" xmlns:xlink="http://www.w3.org/1999/xlink" x="0px" y="0px"
	 viewBox="0 0 100 100" style="enable-background:new 0 0 100 100;" xml:space="preserve">
<style type="text/css">
	.st0{fill:#E79655;}
	.st1{fill:none;stroke:#E79655;stroke-width:2;}
</style>
<path class="st0" d="M30.7,58c5.9,7.1,11.9,14.3,17.8,21.4c0.4,0.5,1,0.7,1.4,0.7c0.5,0,1-0.2,1.4-0.7c5.9-7.1,11.9-14.3,17.8-21.4
	c1.1-1.3,0.5-3.5-1.4-3.5c-2.5,0-5,0-7.5,0c0-10.8,0-21.6,0-32.4c0-1.1-0.9-2-2-2c-5.5,0-11.1,0-16.6,0c-1.1,0-2,0.9-2,2
	c0,10.8,0,21.6,0,32.4c-2.5,0-5,0-7.5,0C30.2,54.5,29.6,56.7,30.7,58z"/>
<path id="Polygone_1_copie_6" class="st1" d="M90.4,74.3L50,98.7L9.5,74.4l0-48.6L49.9,1.5l40.5,24.3L90.4,74.3z"/>
</svg>
