<svg id="Layer_1" data-name="Layer 1" xmlns="http://www.w3.org/2000/svg" viewBox="0 0 788.2 138.4"><defs><style>.cls-1{fill:#103184;}.cls-2{fill:#ff1821;}.cls-3{fill:#fff;}</style></defs><title>logo</title><rect class="cls-1" width="138.4" height="138.4"/><polygon class="cls-2" points="85.8 68.3 138.4 0 130.6 0 77.8 68.3 85.8 68.3"/><path class="cls-3" d="M413.7,249c2.4,6.7,7.4,24.3,9.4,25.7h-13a19,19,0,0,0-.6-4.6c-.6-2-5.3-17.2-5.3-17.2H383.5l-3.3,4.6s3.9,12.3,4.2,12.9a46.24,46.24,0,0,0,2.3,4.3H374.2s-.3-1.9-.4-2.7c-.1-.6-1.2-4.1-1.2-4.1a42.45,42.45,0,0,0-3.6,4.5,17.14,17.14,0,0,0-1.1,2.2H358s-.3-1.9-.4-2.7c-.1-.6-1.3-4.4-1.3-4.4a47.37,47.37,0,0,0-3.5,4.8,17.14,17.14,0,0,0-1.1,2.2H342s2.7-2.6,3.7-3.7c1.6-1.9,7.6-9.7,7.6-9.7l-2.4-8.3H330.3s-11.7,15.4-12.2,15.9a51.19,51.19,0,0,0-4,5.9H308v-3.9l.2-.2c.2-.1,8.9-10.9,16.9-21.6,7.2-9.3,13.9-18.3,14.5-19.2a68.92,68.92,0,0,0,3.5-6.6h10.6a47.47,47.47,0,0,0,.6,5.1c.3.9,6.8,22.1,6.9,22.4l3.6-4.6-6.1-18.9a33.31,33.31,0,0,0-1.9-4.1h12.4a11,11,0,0,0,.4,3.4c.5,1.6,3.2,11.2,3.2,11.2s8.5-10.6,9-11.4a7.15,7.15,0,0,0,1-3.2h10.4a32.34,32.34,0,0,0-5.2,5.6l-12,15.3s1,3.3,1.4,4.9a7.35,7.35,0,0,0,.2.8,6,6,0,0,1,.7-.8c2.8-3.6,15.6-20.4,16.4-21.8.6-1.2,1.5-2.5,2.1-3.9h10.1a24.73,24.73,0,0,0,.5,3.8Zm-15.3-15.9c-1.5,3.2-10.2,13.8-10.2,13.8H402s-2.7-8.3-3.1-10.1a13.89,13.89,0,0,1-.3-3.6c0-.2-.1-.5-.2-.1m-53.1,0c-1.5,3.2-10.2,13.8-10.2,13.8h13.8s-2.7-8.3-3.1-10.1a13.89,13.89,0,0,1-.3-3.6c0-.2-.1-.5-.2-.1m20.8,32.2,3.8-5.2c-.3-.4-2.5-6.9-2.5-6.9l-3.7,4.8Z" transform="translate(-308 -150.2)"/><path class="cls-1" d="M822.3,253.9h0a8.74,8.74,0,0,1,8-5.3,7.9,7.9,0,0,1,7.2,4c1.3,2.1,1.2,5.5,1.2,8.1v14h-3.9V259c0-1.5.1-3.4-.7-4.7a5.4,5.4,0,0,0-4.4-2.3,6.67,6.67,0,0,0-5.3,2.6,10.31,10.31,0,0,0-2,6.8v13.3h-3.9V249.3h3.7v4.6Z" transform="translate(-308 -150.2)"/><path class="cls-1" d="M857.2,248.6c7.5,0,11.2,6.5,11.2,13.2,0,7.1-4.1,13.4-11.8,13.4s-11-6.7-11-13.4c-.1-7.1,3.9-13.2,11.6-13.2m-5.9,20.1a6.6,6.6,0,0,0,5.6,3.2,6.51,6.51,0,0,0,5.9-3.7,17,17,0,0,0-.4-13.5,6.74,6.74,0,0,0-5.5-3,6.45,6.45,0,0,0-5.8,3.6,13.87,13.87,0,0,0-1.3,6.4,16.29,16.29,0,0,0,1.5,7" transform="translate(-308 -150.2)"/><path class="cls-1" d="M887.3,274.9l-3.8.3c-5.6,0-7.2-3.3-7.2-8.3V252.2h-4.5V249h4.5v-6.3l3.9-.4V249h5.7v3.1h-5.7v15.4c0,3,.9,4.5,4.1,4.5l3-.2Z" transform="translate(-308 -150.2)"/><path class="cls-1" d="M896,249.2v6h.1c1.2-3.5,3.3-6.7,7.5-6.7l1.4.1v3.8h-.8a7.18,7.18,0,0,0-6.6,4,9.94,9.94,0,0,0-1.3,5.5v12.8h-3.9V249.3H896Z" transform="translate(-308 -150.2)"/><path class="cls-1" d="M930.5,267.7a11.24,11.24,0,0,1-10.8,7.5c-7.7,0-11.7-6.1-11.7-13.2s4.2-13.4,11.8-13.4c7.9,0,11.3,6.6,11.1,13.7H912.4a11.79,11.79,0,0,0,1.1,5.8A7.41,7.41,0,0,0,920,272a7,7,0,0,0,6.8-4.9Zm-3.9-8.3c.1-4.2-2.3-7.8-6.8-7.8-4.3,0-7,3.8-7.2,7.8Z" transform="translate(-308 -150.2)"/><path class="cls-1" d="M957.7,249.2v4.9h.1a8.43,8.43,0,0,1,7.6-5.5,7.29,7.29,0,0,1,7.2,6c1.4-3.5,4.3-6,8.2-6a7.39,7.39,0,0,1,6.4,3.7c1.3,2.1,1.2,4.9,1.2,7.3v15.2h-3.9V259.6a11.11,11.11,0,0,0-.7-5.1,4.91,4.91,0,0,0-4.3-2.7,6.13,6.13,0,0,0-4.9,2.9c-1.4,2.1-1.4,3.9-1.4,6.3v13.7h-3.9V258.6a8.93,8.93,0,0,0-.8-4.3,5.17,5.17,0,0,0-4.3-2.5,6.28,6.28,0,0,0-4.6,2.5c-1.3,1.6-1.5,3.7-1.5,5.8v14.6h-3.9V249.3h3.5Z" transform="translate(-308 -150.2)"/><path class="cls-1" d="M1017.3,267.7a11.24,11.24,0,0,1-10.8,7.5c-7.7,0-11.7-6.1-11.7-13.2s4.1-13.4,11.8-13.4c7.9,0,11.3,6.6,11.1,13.7H999.2a12.94,12.94,0,0,0,1,5.8,7.41,7.41,0,0,0,6.5,3.9,7,7,0,0,0,6.8-4.9Zm-3.9-8.3c.1-4.2-2.3-7.8-6.8-7.8-4.3,0-7,3.8-7.2,7.8Zm-9.4-12.6-1-2,10.1-5.9,1.7,3.3Z" transform="translate(-308 -150.2)"/><path class="cls-1" d="M1036.9,274.9l-3.7.3c-5.6,0-7.2-3.3-7.2-8.3V252.2h-4.5V249h4.5v-6.3l3.9-.4V249h5.7v3.1h-5.7v15.4c0,3,.8,4.5,4,4.5l3-.2v3.1Z" transform="translate(-308 -150.2)"/><path class="cls-1" d="M1046.7,244.7h-4.3v-4.4h4.3Zm-.2,30h-3.9V249.3h3.9Z" transform="translate(-308 -150.2)"/><path class="cls-1" d="M1076.1,267.7a11.15,11.15,0,0,1-10.8,7.5c-7.7,0-11.7-6.1-11.7-13.2s4.2-13.4,11.8-13.4c7.9,0,11.3,6.6,11.1,13.7H1058a12.94,12.94,0,0,0,1,5.8,7.41,7.41,0,0,0,6.5,3.9,7,7,0,0,0,6.8-4.9Zm-3.9-8.3c0-4.2-2.3-7.8-6.8-7.8-4.3,0-7,3.8-7.2,7.8Z" transform="translate(-308 -150.2)"/><path class="cls-1" d="M1087.2,249.2v6h.1c1.2-3.5,3.4-6.7,7.5-6.7l1.4.1v3.8h-.8a7.18,7.18,0,0,0-6.6,4,9.94,9.94,0,0,0-1.3,5.5v12.8h-3.9V249.3h3.6Z" transform="translate(-308 -150.2)"/><path class="cls-1" d="M489.4,254.5c.9-3.6,2.7-6,6.7-5.8l1.3.1v9a11.08,11.08,0,0,0-1.9-.2c-1.6,0-3.3.3-4.1,1.7a9.29,9.29,0,0,0-.7,4.4v11.1h-9.9V249.2h8.5v5.3h.1Z" transform="translate(-308 -150.2)"/><path class="cls-1" d="M526.7,266.2c-1.6,6.2-7.1,9.1-13.1,9.1-3.7,0-7.4-.8-10.3-3.4a12.74,12.74,0,0,1-4.2-9.6,13.85,13.85,0,0,1,3.7-9.7,14.27,14.27,0,0,1,10.2-4c8.5,0,13.7,5.5,13.7,13.9v1.3H509.5c0,2.8.9,4.8,3.9,4.8,2.3,0,3.5-.9,3.9-3.1Zm-19.5-23.3,11.6-4.9,1.7,4.9-12,3.4Zm9.5,16.1c0-2.5-.8-4.4-3.6-4.4-2.6,0-3.6,2-3.6,4.4Z" transform="translate(-308 -150.2)"/><path class="cls-1" d="M540.1,246.8h-9.9V240h9.9Zm0,28h-9.9V249.2h9.9Z" transform="translate(-308 -150.2)"/><path class="cls-1" d="M545,249.2h9.4v3.6h.1c1.2-2.9,4.2-4.1,7.3-4.1,2.4,0,5.2.7,6.7,2.7s1.6,5,1.6,7.7v15.8H560V259.4c0-1.5,0-3.7-2.2-3.7-2.8,0-3,2.4-3,4.4v14.8H545Z" transform="translate(-308 -150.2)"/><polygon class="cls-1" points="280.5 124.6 273 124.6 263.4 99 273.8 99 278.2 112.5 282.7 99 289.9 99 280.5 124.6"/><path class="cls-1" d="M626.8,266.2c-1.6,6.2-7.1,9.1-13.1,9.1-3.7,0-7.4-.8-10.3-3.4a12.74,12.74,0,0,1-4.2-9.6,13.19,13.19,0,0,1,13.9-13.7c8.5,0,13.7,5.5,13.7,13.9v1.3H609.6c0,2.8.9,4.8,3.9,4.8,2.3,0,3.5-.9,3.9-3.1Zm-10-7.2c0-2.5-.8-4.4-3.6-4.4-2.6,0-3.6,2-3.6,4.4Z" transform="translate(-308 -150.2)"/><path class="cls-1" d="M630,249.2h9.4v3.6h.1c1.2-2.9,4.2-4.1,7.3-4.1,2.4,0,5.2.7,6.7,2.7s1.6,5,1.6,7.7v15.8h-9.9V259.4c0-1.5,0-3.7-2.2-3.7-2.8,0-3,2.4-3,4.4v14.8H630Z" transform="translate(-308 -150.2)"/><path class="cls-1" d="M670.6,249.2h5.1v6.5h-5v8.8c0,1.8-.2,3.3,2.2,3.3a14.46,14.46,0,0,0,2.9-.4v7.1a34.29,34.29,0,0,1-6.9.9,8.42,8.42,0,0,1-6.2-2.7c-2-2.1-1.9-4.6-1.9-7.3v-9.7h-3.7v-6.5h4.2l.8-8.2,8.6-.3v8.5Z" transform="translate(-308 -150.2)"/><path class="cls-1" d="M706.1,262.2c0,7.7-6.3,13.1-14.1,13.1s-14.1-5.3-14.1-13.1c0-8.2,6.1-13.5,14.1-13.5s14.1,5.3,14.1,13.5m-17.5-.3c0,6.9,1.6,7.4,3.5,7.4s3.5-.5,3.5-7.4c0-2.5-.1-6.9-3.5-6.9s-3.5,4.4-3.5,6.9" transform="translate(-308 -150.2)"/><path class="cls-1" d="M709.1,249.2h9.4v3.6h.1c1.2-2.9,4.2-4.1,7.3-4.1,2.4,0,5.2.7,6.7,2.7s1.6,5,1.6,7.7v15.8h-9.9V259.4c0-1.5,0-3.7-2.2-3.7-2.8,0-3,2.4-3,4.4v14.8h-9.9V249.2Z" transform="translate(-308 -150.2)"/><path class="cls-1" d="M744.7,266.5c.5,2.5,3.3,2.8,5.5,2.8,1,0,3.8-.1,3.8-1.6,0-1.3-3.4-1.5-4.3-1.6-5.4-.7-11.7-1.8-11.7-8.6a7.73,7.73,0,0,1,3.9-6.7,15.73,15.73,0,0,1,8.2-1.9c4.8,0,9.9,1.8,11.6,6.7l-7.6,1.4c-.7-1.7-2.7-2.3-4.5-2.3s-3.2.6-3.2,1.3.7,1.1,1.5,1.3c1.1.3,3.1.4,4.3.6,2.3.3,5,.6,7,1.9a7.37,7.37,0,0,1,3.6,6.5c0,7.1-7.5,9.1-13.2,9.1s-11-1.9-12.9-7.8Z" transform="translate(-308 -150.2)"/><polygon class="cls-2" points="469.7 132.7 502.6 89.9 494.8 89.9 461.8 132.7 469.7 132.7"/></svg>